<svg xmlns="http://www.w3.org/2000/svg" version="1.1" xmlns:xlink="http://www.w3.org/1999/xlink" width="50" height="50" x="0" y="0" viewBox="0 0 512 512" style="enable-background:new 0 0 512 512" xml:space="preserve" class=""><g><path d="M395.35 357.04c-1.77-11.55-8.95-20.82-19.68-25.43l-73.86-31.7-4.11-13.02c13.27-13.49 22.41-33.08 25.58-54.84 8.61-2.47 14.97-10.45 14.97-19.8 0-6.3-2.92-12.18-7.71-16.04 6.95-30.48-.71-52.59-8.61-65.97-10.08-17.1-26.51-30.06-45.07-35.57-13.17-3.9-26.46-3.66-37.41.68-10.64 4.22-18.66 11.95-23.43 22.52-9.12-1.64-16.69.03-22.57 4.98-12.1 10.2-15.54 32.68-11.06 72.65a20.523 20.523 0 0 0-8.63 16.75c0 9.34 6.35 17.33 14.97 19.8 3.17 21.76 12.31 41.35 25.58 54.84l-4.11 13.02-73.86 31.7c-10.74 4.61-17.91 13.88-19.68 25.43l-3.53 23.03c-.28 1.79.28 3.62 1.5 4.96 36.2 39.64 87.73 62.38 141.38 62.38s105.18-22.74 141.38-62.38a5.999 5.999 0 0 0 1.5-4.96zM256 435.41c-49.34 0-96.76-20.51-130.58-56.38l3.09-20.17c1.15-7.48 5.61-13.24 12.56-16.22l76.38-32.78c1.6-.69 2.83-2.04 3.35-3.71l6.06-19.18c.7-2.23.05-4.66-1.67-6.24-13.61-12.43-22.76-32.3-25.11-54.52a6.001 6.001 0 0 0-5.87-5.37c-4.66-.07-8.45-3.92-8.45-8.58 0-3.48 2.1-6.6 5.34-7.94a5.99 5.99 0 0 0 3.66-6.27c-4.44-36.47-2.28-58.68 6.41-66.01 3.76-3.17 9.26-3.62 16.81-1.35 3.12.94 6.42-.79 7.43-3.88 7.66-23.46 30.67-25.76 48.03-20.61 31.67 9.39 57.1 43.75 44.43 91.25-.75 2.83.64 5.79 3.31 7.01 3.08 1.4 5.06 4.47 5.06 7.82 0 4.66-3.79 8.51-8.45 8.58a6.011 6.011 0 0 0-5.88 5.37c-2.35 22.22-11.5 42.09-25.11 54.52a5.982 5.982 0 0 0-1.67 6.24l6.06 19.18a6.038 6.038 0 0 0 3.35 3.71l76.38 32.78c6.95 2.98 11.41 8.74 12.56 16.22l3.09 20.17c-33.81 35.85-81.23 56.36-130.57 56.36zM256 15C123.11 15 15 123.11 15 256s108.11 241 241 241 241-108.11 241-241S388.89 15 256 15zm0 470C129.73 485 27 382.27 27 256S129.73 27 256 27s229 102.73 229 229-102.73 229-229 229z" fill="#000000" opacity="1" data-original="#000000" class=""></path></g></svg>